<?xml version="1.0" standalone="no"?><!DOCTYPE svg PUBLIC "-//W3C//DTD SVG 1.1//EN" "http://www.w3.org/Graphics/SVG/1.1/DTD/svg11.dtd"><svg t="1653375106420" class="icon" viewBox="0 0 1024 1024" version="1.1" xmlns="http://www.w3.org/2000/svg" p-id="3824" xmlns:xlink="http://www.w3.org/1999/xlink" width="128" height="128"><defs><style type="text/css">@font-face { font-family: feedback-iconfont; src: url("//at.alicdn.com/t/font_1031158_u69w8yhxdu.woff2?t=1630033759944") format("woff2"), url("//at.alicdn.com/t/font_1031158_u69w8yhxdu.woff?t=1630033759944") format("woff"), url("//at.alicdn.com/t/font_1031158_u69w8yhxdu.ttf?t=1630033759944") format("truetype"); }
</style></defs><path d="M307 955.7H198.5c-31.8 0-57.6-25.8-57.6-57.6V125.9c0-31.8 25.8-57.6 57.6-57.6H307c31.8 0 57.6 25.8 57.6 57.6v772.2c0 31.8-25.8 57.6-57.6 57.6zM825.5 955.7H717c-31.8 0-57.6-25.8-57.6-57.6V125.9c0-31.8 25.8-57.6 57.6-57.6h108.5c31.8 0 57.6 25.8 57.6 57.6v772.2c0 31.8-25.8 57.6-57.6 57.6z" fill="#ffffff" p-id="3825"></path></svg>