2 90
###
(1)&/1 &/1 &/1 &/1
(2)&/1 &/1 &/1 &/1
(3)&/1 &/1 &/1 &/1
(4)&/1 &/1 &/1 G4/0.125 &/0.125 C5/0.125 &/0.125 D5/0.125 &/0.125 E5/0.125 &/0.125
(5)D5/0.25 &/0.25 C5/0.125 &/0.125 C5/1.125 &/1.125 G4/0.125 &/0.125 C5/0.125 &/0.125 D5/0.125 &/0.125 E5/0.125 &/0.125
(6)D5/0.25 &/0.25 C5/0.125 &/0.125 D5/0.625 &/0.125 E5/0.25 &/0.25 E5/0.5 &/0.5 G4/0.125 &/0.125 C5/0.125 &/0.125 D5/0.125 &/0.125 E5/0.125 &/0.125
(7)D5/0.25 &/0.25 C5/0.125 &/0.125 C5/1.125 &/1.125 G4/0.125 &/0.125 C5/0.125 &/0.125 D5/0.125 &/0.125 E5/0.125 &/0.125
(8)D5/0.25 &/0.25 C5/0.125 &/0.125 D5/0.625 &/0.125 G5/0.25 &/0.25 E5/1 E5/0.5|G4/0.5|E4/0.5 F5/0.5|A4/0.5/E4/0.5
(9)G5/0.5|B4/0.5|G4/0.5 G5/0.25|B4/0.25|G4/0.25 G5/0.75|B4/0.75|G4/0.75 G5/0.5|B4/0.5|G4/0.5 G5/0.5|C5/0.5|G4/0.5 E5/0.25 C5/0.75|A4/0.75 E5/0.25 F5/0.25
(10)G5/0.5|B4/0.5|G4/0.5 G5/0.25|B4/0.25|G4/0.25 G5/0.75|B4/0.75|G4/0.75 G5/0.5|B4/0.5|G4/0.5 G5/0.5|C5/0.5|G4/0.5 E5/0.25 C5/0.75|A4/0.75 C5/0.25|A4/0.25 D5/0.25|B4/0.25
(11)E5/0.5|C5/0.5|F#4/0.5 E5/0.25|C5/0.25|F#4/0.25 E5/0.75|C5/0.75|F#4/0.75 E5/0.5|C5/0.5|F#4/0.5 E5/0.5|C5/0.5|A4/0.5 A5/0.5 A5/0.166|D5/0.166 E5/0.166 D5/0.166 C5/0.5
(12)D5/1|F4/1 D5/0.5|A4/0.5|F4/0.5 A4/0.25|D4/0.25 A4/0.25|D4/0.25 D5/0.5|B4/0.5|G4/0.5 B4/0.5 G4/0.125 &/0.125 C5/0.125 &/0.125 D5/0.125 &/0.125 E5/0.125 &/0.125
(5)D5/0.25 &/0.25 C5/0.125 &/0.125 C5/1.125 &/1.125 G4/0.125 &/0.125 C5/0.125 &/0.125 D5/0.125 &/0.125 E5/0.125 &/0.125
(6)D5/0.25 &/0.25 C5/0.125 &/0.125 D5/0.625 &/0.125 E5/0.25 &/0.25 E5/0.5 &/0.5 G4/0.125 &/0.125 C5/0.125 &/0.125 D5/0.125 &/0.125 E5/0.125 &/0.125
(7)D5/0.25 &/0.25 C5/0.125 &/0.125 C5/1.125 &/1.125 G4/0.125 &/0.125 C5/0.125 &/0.125 D5/0.125 &/0.125 E5/0.125 &/0.125
(8)D5/0.25 &/0.25 C5/0.125 &/0.125 D5/0.625 &/0.125 G5/0.25 &/0.25 E5/1 E5/0.5|G4/0.5|E4/0.5 F5/0.5|A4/0.5/E4/0.5
(9)G5/0.5|B4/0.5|G4/0.5 G5/0.25|B4/0.25|G4/0.25 G5/0.75|B4/0.75|G4/0.75 G5/0.5|B4/0.5|G4/0.5 G5/0.5|C5/0.5|G4/0.5 E5/0.25 C5/0.75|A4/0.75 E5/0.25 F5/0.25
(13)G5/0.5|B4/0.5|G4/0.5 G5/0.25|B4/0.25|G4/0.25 G5/0.75|B4/0.75|G4/0.75 G5/0.5|B4/0.5|G4/0.5 G5/0.5|C5/0.5|G4/0.5 E5/0.25 C5/0.75|A4/0.75 C5/0.25 D5/0.25
(14)E5/0.5|C5/0.5|F#4/0.5 E5/0.25|C5/0.25|F#4/0.25 E5/0.75|C5/0.75|F#4/0.75 E5/0.5|C5/0.5|F#4/0.5 E5/0.5|C5/0.5|A4/0.5 E5/1|B4/1|F#4/1 A5/0.166|D5/0.166 E5/0.166 D5/0.166 C5/0.5 A4/0.5

###  
(1)A2/0.5 E3/0.25 &/0.25 A3/0.25 &/0.25 E3/0.25 &/0.25 F2/0.5 C3/0.25 &/0.25 F3/0.25 &/0.25 C3/0.25 &/0.25
(2)G2/0.5 D3/0.25 &/0.25 G3/0.25 &/0.25 D3/0.25 &/0.25 C3/0.5 G3/0.25 &/0.25 C4/0.25 &/0.25 G3/0.25 &/0.25
(3)A2/0.5 E3/0.25 &/0.25 A3/0.25 &/0.25 E3/0.25 &/0.25 F2/0.5 C3/0.25 &/0.25 F3/0.25 &/0.25 C3/0.25 &/0.25
(4)G2/0.5 D3/0.25 &/0.25 G3/0.25 &/0.25 D3/0.25 &/0.25 C3/0.5 G3/0.25 &/0.25 C4/0.25 &/0.25 G3/0.25 &/0.25
(5)A2/0.5 E3/0.25 &/0.25 A3/0.25 &/0.25 E3/0.25 &/0.25 F2/0.5 C3/0.25 &/0.25 F3/0.25 &/0.25 C3/0.25 &/0.25
(6)G2/0.5 D3/0.25 &/0.25 G3/0.25 &/0.25 D3/0.25 &/0.25 C3/0.5 G3/0.25 &/0.25 C4/0.25 &/0.25 G3/0.25 &/0.25
(7)A2/0.5 E3/0.25 &/0.25 A3/0.25 &/0.25 E3/0.25 &/0.25 F2/0.5 C3/0.25 &/0.25 F3/0.25 &/0.25 C3/0.25 &/0.25
(8)G2/0.5 D3/0.25 &/0.25 G3/0.25 &/0.25 D3/0.25 &/0.25 C3/0.5 G3/0.5 C4/0.5 G3/0.5
(9)G2/0.5 D3/0.5 G3/0.5 D3/0.5 F2/0.5 C3/0.5 F3/0.5 C3/0.5
(10)E2/0.5 B2/0.5 E3/0.5 B2/0.5 A2/0.5 E3/0.5 A3/0.5 E3/0.5
(11)D2/0.5 A2/0.5 D3/0.5 A2/0.5 F2/0.5 C3/0.5 F3/0.5 C3/0.5
(12)G2/0.5 D3/0.5 G3/0.5 D3/0.5 G2/0.5 D3/0.5 G3/0.5 D3/0.5
(5)A2/0.5 E3/0.25 &/0.25 A3/0.25 &/0.25 E3/0.25 &/0.25 F2/0.5 C3/0.25 &/0.25 F3/0.25 &/0.25 C3/0.25 &/0.25
(6)G2/0.5 D3/0.25 &/0.25 G3/0.25 &/0.25 D3/0.25 &/0.25 C3/0.5 G3/0.25 &/0.25 C4/0.25 &/0.25 G3/0.25 &/0.25
(7)A2/0.5 E3/0.25 &/0.25 A3/0.25 &/0.25 E3/0.25 &/0.25 F2/0.5 C3/0.25 &/0.25 F3/0.25 &/0.25 C3/0.25 &/0.25
(8)G2/0.5 D3/0.25 &/0.25 G3/0.25 &/0.25 D3/0.25 &/0.25 C3/0.5 G3/0.5 C4/0.5 G3/0.5
(9)G2/0.5 D3/0.5 G3/0.5 D3/0.5 F2/0.5 C3/0.5 F3/0.5 C3/0.5
(13)E2/0.5 B3/0.5 E3/0.5 B3/0.5 A2/0.5 E3/0.5 A3/0.5 E3/0.5
(14)D2/0.2 A2/0.5 D3/0.5 A2/0.5 G2/1 &/1